<?xml version="1.0" encoding="UTF-8"?>
<!DOCTYPE svg PUBLIC "-//W3C//DTD SVG 1.1//EN" "http://www.w3.org/Graphics/SVG/1.1/DTD/svg11.dtd">
<!-- Creator: CorelDRAW -->
<svg xmlns="http://www.w3.org/2000/svg" xml:space="preserve" width="0.106661in" height="0.106661in" version="1.1" style="shape-rendering:geometricPrecision; text-rendering:geometricPrecision; image-rendering:optimizeQuality; fill-rule:evenodd; clip-rule:evenodd"
viewBox="0 0 106.66 106.66"
 xmlns:xlink="http://www.w3.org/1999/xlink"
 xmlns:xodm="http://www.corel.com/coreldraw/odm/2003">
 <defs>
  <style type="text/css">
   <![CDATA[
    .fil1 {fill:#FEFEFE}
    .fil0 {fill:#121C26}
   ]]>
  </style>
 </defs>
 <g id="Layer_x0020_1">
  <metadata id="CorelCorpID_0Corel-Layer"/>
  <g id="_1824541641024">
   <polygon class="fil0" points="107.09,107.09 -0.43,107.09 -0.43,-0.43 107.09,-0.43 "/>
   <g>
    <polygon class="fil1" points="70.01,15.22 57.11,15.22 57.11,2.31 70.01,2.31 "/>
    <polygon class="fil1" points="106.81,0.11 106.54,0.11 106.54,-0.15 106.81,-0.15 "/>
    <polygon class="fil1" points="84.48,4.86 79.8,4.86 79.8,0.17 84.48,0.17 "/>
    <polygon class="fil1" points="81.29,14.72 73.28,14.72 73.28,6.7 81.29,6.7 "/>
    <polygon class="fil1" points="72.19,26.3 62.37,26.3 62.37,16.48 72.19,16.48 "/>
    <polygon class="fil1" points="90.59,2.81 87.79,2.81 87.79,0.01 90.59,0.01 "/>
    <polygon class="fil1" points="81.53,32.13 74.43,32.13 74.43,25.03 81.53,25.03 "/>
    <polygon class="fil1" points="93.13,19.72 89.28,19.72 89.28,15.87 93.13,15.87 "/>
    <polygon class="fil1" points="70.99,53.33 53.33,53.33 53.33,35.67 70.99,35.67 "/>
    <polygon class="fil1" points="97.97,39.82 92.59,39.82 92.59,34.44 97.97,34.44 "/>
    <polygon class="fil1" points="104.88,14.4 101.57,14.4 101.57,11.09 104.88,11.09 "/>
    <polygon class="fil1" points="91.8,26.84 86.82,26.84 86.82,21.85 91.8,21.85 "/>
    <polygon class="fil1" points="104.05,0.48 103.79,0.48 103.79,0.22 104.05,0.22 "/>
    <polygon class="fil1" points="97.43,5.61 95.22,5.61 95.22,3.39 97.43,3.39 "/>
    <polygon class="fil1" points="93.13,10.32 89.8,10.32 89.8,7 93.13,7 "/>
    <polygon class="fil1" points="102.49,8.09 100.83,8.09 100.83,6.42 102.49,6.42 "/>
    <polygon class="fil1" points="103.15,23.48 99.05,23.48 99.05,19.38 103.15,19.38 "/>
    <polygon class="fil1" points="85.2,23.26 78.01,23.26 78.01,16.06 85.2,16.06 "/>
    <polygon class="fil1" points="96.17,12.34 94.15,12.34 94.15,10.33 96.17,10.33 "/>
    <polygon class="fil1" points="98.7,15.93 96.04,15.93 96.04,13.28 98.7,13.28 "/>
    <polygon class="fil1" points="94.14,4.36 91.82,4.36 91.82,2.04 94.14,2.04 "/>
    <polygon class="fil1" points="97.58,1.99 95.96,1.99 95.96,0.38 97.58,0.38 "/>
    <polygon class="fil1" points="100.78,3.46 99.81,3.46 99.81,2.48 100.78,2.48 "/>
    <polygon class="fil1" points="100.66,5.8 99.28,5.8 99.28,4.42 100.66,4.42 "/>
    <polygon class="fil1" points="105.23,9.44 103.4,9.44 103.4,7.61 105.23,7.61 "/>
    <polygon class="fil1" points="103.95,5.09 103.12,5.09 103.12,4.26 103.95,4.26 "/>
    <polygon class="fil1" points="103.42,3.06 102.9,3.06 102.9,2.54 103.42,2.54 "/>
    <polygon class="fil1" points="105.99,1.68 105.78,1.68 105.78,1.47 105.99,1.47 "/>
    <polygon class="fil1" points="104.89,3.19 104.36,3.19 104.36,2.66 104.89,2.66 "/>
    <polygon class="fil1" points="106.22,4.7 105.47,4.7 105.47,3.95 106.22,3.95 "/>
    <polygon class="fil1" points="106.13,6.81 104.84,6.81 104.84,5.51 106.13,5.51 "/>
    <polygon class="fil1" points="100.74,30.61 96.02,30.61 96.02,25.89 100.74,25.89 "/>
    <polygon class="fil1" points="96.99,24.67 93.33,24.67 93.33,21 96.99,21 "/>
    <polygon class="fil1" points="88.62,14.08 84.96,14.08 84.96,10.42 88.62,10.42 "/>
    <polygon class="fil1" points="99.52,8.88 97.75,8.88 97.75,7.11 99.52,7.11 "/>
    <polygon class="fil1" points="100.51,12.3 97.9,12.3 97.9,9.69 100.51,9.69 "/>
    <polygon class="fil1" points="96.34,8.26 94.7,8.26 94.7,6.63 96.34,6.63 "/>
    <polygon class="fil1" points="99.15,4.15 98.39,4.15 98.39,3.39 99.15,3.39 "/>
    <polygon class="fil1" points="102.1,3.64 101.84,3.64 101.84,3.39 102.1,3.39 "/>
    <polygon class="fil1" points="101.99,0.71 101.42,0.71 101.42,0.14 101.99,0.14 "/>
    <polygon class="fil1" points="102.93,-0.05 102.64,-0.05 102.64,-0.33 102.93,-0.33 "/>
    <polygon class="fil1" points="105.65,0.4 105.37,0.4 105.37,0.11 105.65,0.11 "/>
    <polygon class="fil1" points="105.02,1.63 104.78,1.63 104.78,1.39 105.02,1.39 "/>
    <polygon class="fil1" points="106.37,18.37 104.06,18.37 104.06,16.06 106.37,16.06 "/>
    <polygon class="fil1" points="100.81,14.7 99.35,14.7 99.35,13.23 100.81,13.23 "/>
    <polygon class="fil1" points="102.68,17.11 100.72,17.11 100.72,15.15 102.68,15.15 "/>
    <polygon class="fil1" points="98.14,19.59 95.56,19.59 95.56,17 98.14,17 "/>
    <polygon class="fil1" points="93.3,14.38 90.25,14.38 90.25,11.34 93.3,11.34 "/>
    <polygon class="fil1" points="106.44,11.04 105.44,11.04 105.44,10.03 106.44,10.03 "/>
    <polygon class="fil1" points="102.49,10.11 101.74,10.11 101.74,9.35 102.49,9.35 "/>
    <polygon class="fil1" points="99.37,0.63 98.94,0.63 98.94,0.2 99.37,0.2 "/>
    <polygon class="fil1" points="106.57,2.85 106.44,2.85 106.44,2.72 106.57,2.72 "/>
    <polygon class="fil1" points="106.52,0.84 106.46,0.84 106.46,0.78 106.52,0.78 "/>
    <polygon class="fil1" points="106.07,-0.23 106,-0.23 106,-0.29 106.07,-0.29 "/>
    <polygon class="fil1" points="104.85,-0.08 104.79,-0.08 104.79,-0.14 104.85,-0.14 "/>
    <polygon class="fil1" points="106.99,-0.29 106.93,-0.29 106.93,-0.35 106.99,-0.35 "/>
    <polygon class="fil1" points="102.46,5.63 101.56,5.63 101.56,4.72 102.46,4.72 "/>
    <polygon class="fil1" points="95.19,1.67 93.35,1.67 93.35,-0.16 95.19,-0.16 "/>
    <polygon class="fil1" points="99.2,2.59 97.98,2.59 97.98,1.37 99.2,1.37 "/>
    <polygon class="fil1" points="101.15,1.88 100.3,1.88 100.3,1.02 101.15,1.02 "/>
    <polygon class="fil1" points="102.19,2.31 101.54,2.31 101.54,1.65 102.19,1.65 "/>
    <polygon class="fil1" points="103.8,1.72 103.46,1.72 103.46,1.37 103.8,1.37 "/>
    <polygon class="fil1" points="104.67,1.1 104.33,1.1 104.33,0.76 104.67,0.76 "/>
    <polygon class="fil1" points="105.67,2.38 105.28,2.38 105.28,2 105.67,2 "/>
    <polygon class="fil1" points="102.68,1.42 102.35,1.42 102.35,1.08 102.68,1.08 "/>
    <polygon class="fil1" points="104.28,-0.06 104.07,-0.06 104.07,-0.27 104.28,-0.27 "/>
    <polygon class="fil1" points="103.57,0.1 103.3,0.1 103.3,-0.17 103.57,-0.17 "/>
    <polygon class="fil1" points="103.01,0.73 102.54,0.73 102.54,0.26 103.01,0.26 "/>
    <polygon class="fil1" points="103.63,0.98 103.38,0.98 103.38,0.73 103.63,0.73 "/>
    <polygon class="fil1" points="104.92,0.46 104.64,0.46 104.64,0.18 104.92,0.18 "/>
    <polygon class="fil1" points="106.22,0.35 106.13,0.35 106.13,0.25 106.22,0.25 "/>
    <polygon class="fil1" points="105.6,1 105.38,1 105.38,0.78 105.6,0.78 "/>
    <polygon class="fil1" points="106.71,1.49 106.49,1.49 106.49,1.27 106.71,1.27 "/>
    <polygon class="fil1" points="106.73,2.24 106.34,2.24 106.34,1.86 106.73,1.86 "/>
    <polygon class="fil1" points="89.14,33.09 83.96,33.09 83.96,27.91 89.14,27.91 "/>
    <polygon class="fil1" points="105.4,37.07 100.47,37.07 100.47,32.14 105.4,32.14 "/>
    <polygon class="fil1" points="106.06,28.26 102.17,28.26 102.17,24.37 106.06,24.37 "/>
    <polygon class="fil1" points="82.68,40.49 76.06,40.49 76.06,33.88 82.68,33.88 "/>
    <polygon class="fil1" points="85.32,52.63 75.02,52.63 75.02,42.33 85.32,42.33 "/>
    <polygon class="fil1" points="98.26,51.36 89.4,51.36 89.4,42.5 98.26,42.5 "/>
    <polygon class="fil1" points="105.5,45.48 99.63,45.48 99.63,39.6 105.5,39.6 "/>
    <polygon class="fil1" points="89.65,39.56 85.37,39.56 85.37,35.28 89.65,35.28 "/>
    <polygon class="fil1" points="94.85,32.45 90.81,32.45 90.81,28.41 94.85,28.41 "/>
    <polygon class="fil1" points="88.75,7.48 86,7.48 86,4.73 88.75,4.73 "/>
    <polygon class="fil1" points="78.48,5.62 74.42,5.62 74.42,1.56 78.48,1.56 "/>
    <polygon class="fil1" points="61.39,33.65 54.97,33.65 54.97,27.22 61.39,27.22 "/>
    <polygon class="fil1" points="68.56,33.28 63.02,33.28 63.02,27.74 68.56,27.74 "/>
    <polygon class="fil1" points="59.27,20.56 55.62,20.56 55.62,16.91 59.27,16.91 "/>
    <polygon class="fil1" points="59.64,25.19 57.31,25.19 57.31,22.87 59.64,22.87 "/>
    <polygon class="fil1" points="76.11,21.76 73.41,21.76 73.41,19.06 76.11,19.06 "/>
    <polygon class="fil1" points="72.57,31.62 69.87,31.62 69.87,28.92 72.57,28.92 "/>
    <polygon class="fil1" points="73.4,34.9 72.23,34.9 72.23,33.74 73.4,33.74 "/>
    <polygon class="fil1" points="72.01,5.32 70.84,5.32 70.84,4.15 72.01,4.15 "/>
    <polygon class="fil1" points="73.23,2.27 71.06,2.27 71.06,0.09 73.23,0.09 "/>
    <polygon class="fil1" points="84.78,9.1 82.61,9.1 82.61,6.93 84.78,6.93 "/>
    <polygon class="fil1" points="88.4,43.16 86.22,43.16 86.22,40.98 88.4,40.98 "/>
    <polygon class="fil1" points="74.33,40.89 72.15,40.89 72.15,38.71 74.33,38.71 "/>
    <polygon class="fil1" points="99.46,33.56 97.28,33.56 97.28,31.38 99.46,31.38 "/>
    <polygon class="fil1" points="83.42,12.61 82.9,12.61 82.9,12.09 83.42,12.09 "/>
    <polygon class="fil1" points="75.94,16.63 75.37,16.63 75.37,16.06 75.94,16.06 "/>
   </g>
  </g>
 </g>
</svg>
